<svg xmlns="http://www.w3.org/2000/svg" width="300" height="300" viewBox="0 0 300 300">
  <!-- Background color -->
  <rect width="300" height="300" fill="#c29666" />
  
  <!-- Coffee Bean Logo Symbol -->
  <g transform="translate(100, 50)" fill="#1C3518">
    <path d="M50,0 C77.6,0 100,22.4 100,50 C100,77.6 77.6,100 50,100 C22.4,100 0,77.6 0,50 C0,22.4 22.4,0 50,0 Z M50,10 C45,10 40,20 40,50 C40,80 45,90 50,90 C55,90 60,80 60,50 C60,20 55,10 50,10 Z M30,20 C25,20 20,30 20,40 C20,50 25,60 30,60 C35,60 40,50 40,40 C40,30 35,20 30,20 Z M70,20 C65,20 60,30 60,40 C60,50 65,60 70,60 C75,60 80,50 80,40 C80,30 75,20 70,20 Z M50,60 C45,60 30,65 30,70 C30,80 45,85 50,85 C55,85 70,80 70,70 C70,65 55,60 50,60 Z" />
  </g>
  
  <!-- YOYA Text -->
  <g transform="translate(50, 170)" fill="#1C3518">
    <path d="M23.776,50 L14.08,31.2 L4.384,50 L0,50 L12.032,27.776 L0,5.824 L4.384,5.824 L14.08,24.352 L23.776,5.824 L28.16,5.824 L16.128,27.776 L28.16,50 L23.776,50 Z" />
    <path d="M63.232,27.872 C63.232,34 61.056,39.456 57.296,43.2 C53.248,47.232 47.776,50 41.632,50 C35.488,50 30.016,47.232 25.968,43.2 C22.208,39.456 20.032,34 20.032,27.872 C20.032,21.744 22.208,16.288 25.968,12.544 C30.016,8.512 35.488,5.744 41.632,5.744 C47.776,5.744 53.248,8.512 57.296,12.544 C61.056,16.288 63.232,21.744 63.232,27.872 Z M58.432,27.872 C58.432,22.88 56.64,18.448 53.744,15.344 C50.576,11.968 46.336,9.792 41.632,9.792 C36.928,9.792 32.688,11.968 29.52,15.344 C26.624,18.448 24.832,22.88 24.832,27.872 C24.832,32.864 26.624,37.296 29.52,40.4 C32.688,43.776 36.928,45.952 41.632,45.952 C46.336,45.952 50.576,43.776 53.744,40.4 C56.64,37.296 58.432,32.864 58.432,27.872 Z" />
    <path d="M100.992,50 L91.296,31.2 L81.6,50 L77.216,50 L89.248,27.776 L77.216,5.824 L81.6,5.824 L91.296,24.352 L100.992,5.824 L105.376,5.824 L93.344,27.776 L105.376,50 L100.992,50 Z" />
    <path d="M113.632,50 L113.632,5.824 L118.304,5.824 L138.656,41.44 L138.656,5.824 L143.328,5.824 L143.328,50 L138.656,50 L118.304,14.384 L118.304,50 L113.632,50 Z" />
  </g>
  
  <!-- COFFEE ROASTERS Text -->
  <g transform="translate(80, 220)" fill="#1C3518">
    <text font-family="Arial, sans-serif" font-size="14" font-weight="bold" letter-spacing="1.2">
      <tspan x="0" y="0">COFFEE ROASTERS</tspan>
    </text>
  </g>
</svg>